<?xml version="1.0" encoding="utf-8"?>
<!-- Generator: Adobe Illustrator 18.0.0, SVG Export Plug-In . SVG Version: 6.00 Build 0)  -->
<!DOCTYPE svg PUBLIC "-//W3C//DTD SVG 1.1//EN" "http://www.w3.org/Graphics/SVG/1.1/DTD/svg11.dtd">
<svg version="1.1" id="Capa_1" xmlns="http://www.w3.org/2000/svg" xmlns:xlink="http://www.w3.org/1999/xlink" x="0px" y="0px"
	 viewBox="0 0 572.6 572.6" enable-background="new 0 0 572.6 572.6" xml:space="preserve">
<g>
	<g>
		<path fill="#38CCB9" d="M60.5,225.7c0,124.7,158.5,346.8,225.7,346.8c67.3,0,225.7-222.2,225.7-346.8S411,0,286.3,0
			C161.6,0,60.5,101.1,60.5,225.7z M345,215.6c34.7-34.7,78.5-47,97.9-27.6c19.4,19.4,7,63.2-27.6,97.9
			c-34.7,34.7-78.5,47-97.9,27.6C298,294.1,310.4,250.3,345,215.6z M298.3,352.8c4.4,0,7.9,7.4,7.9,16.5c0,9.1-3.5,16.5-7.9,16.5
			c-4.4,0-7.9-7.4-7.9-16.5C290.4,360.1,293.9,352.8,298.3,352.8z M269.3,352.8c4.4,0,7.9,7.4,7.9,16.5c0,9.1-3.5,16.5-7.9,16.5
			s-7.9-7.4-7.9-16.5C261.4,360.1,264.9,352.8,269.3,352.8z M222.5,215.6c34.7,34.7,47,78.5,27.6,97.9s-63.2,7-97.9-27.6
			s-47-78.5-27.7-97.9S187.8,180.9,222.5,215.6z"/>
	</g>
</g>
</svg>
