<?xml version="1.0" encoding="utf-8"?>
<!-- Generator: Adobe Illustrator 18.0.0, SVG Export Plug-In . SVG Version: 6.00 Build 0)  -->
<!DOCTYPE svg PUBLIC "-//W3C//DTD SVG 1.1//EN" "http://www.w3.org/Graphics/SVG/1.1/DTD/svg11.dtd">
<svg version="1.1" id="Capa_1" xmlns="http://www.w3.org/2000/svg" xmlns:xlink="http://www.w3.org/1999/xlink" x="0px" y="0px"
	 viewBox="0 0 512 512" enable-background="new 0 0 512 512" xml:space="preserve">
<g>
	<g>
		<path fill="#38CCB9" d="M256,256c61.9,0,112-57.3,112-128S317.9,0,256,0c-61.8,0-112,57.3-112,128S194.2,256,256,256z M256,224
			c-17.7,0-32-14.3-32-32h64C288,209.7,273.7,224,256,224z M181.1,116.8c16.3,12.2,48.1,7.7,76-12c14.1-9.9,24.5-22,31-34
			C316.2,83.1,336,111.2,336,144c0,15.8-4.8,30.5-12.7,42.9L256,160l-67.3,26.9c-7.9-12.4-12.7-27.1-12.7-42.9
			C176,134.4,178,125.3,181.1,116.8z"/>
		<path fill="#38CCB9" d="M384,288h-64l-64,96l-64-96h-64c-35.3,0-64,28.7-64,64v64v64c0,17.7,14.3,32,32,32h320
			c17.7,0,32-14.3,32-32v-64v-64C448,316.7,419.4,288,384,288z"/>
	</g>
</g>
</svg>
